<svg xmlns="http://www.w3.org/2000/svg" width="24" height="24" fill="none">
    <mask id="a" width="16" height="22" x="4" y="1" maskUnits="userSpaceOnUse" style="mask-type:alpha">
        <path fill="#D9D9D9" d="M12.024 1S4.511 9.951 4 23c0 0 9.196-10.67 11.866-7.9C18.784 18.124 20 21.906 20 21.906S18.638 8.375 12.024 1Z"/>
    </mask>
    <g fill="#75FB4C" mask="url(#a)">
        <path fill-rule="evenodd" d="M10.5 2A1.5 1.5 0 0 0 9 3.5v1a1.5 1.5 0 1 0 3 0v-1A1.5 1.5 0 0 0 10.5 2Zm0 1a.5.5 0 0 0-.5.5v1a.5.5 0 0 0 1 0v-1a.5.5 0 0 0-.5-.5ZM11.5 7A1.5 1.5 0 0 0 10 8.5v1a1.5 1.5 0 0 0 3 0v-1A1.5 1.5 0 0 0 11.5 7Zm0 1a.5.5 0 0 0-.5.5v1a.5.5 0 0 0 1 0v-1a.5.5 0 0 0-.5-.5ZM15.5 7A1.5 1.5 0 0 0 14 8.5v1a1.5 1.5 0 0 0 3 0v-1A1.5 1.5 0 0 0 15.5 7Zm0 1a.5.5 0 0 0-.5.5v1a.5.5 0 0 0 1 0v-1a.5.5 0 0 0-.5-.5ZM7.5 12A1.5 1.5 0 0 0 6 13.5v1a1.5 1.5 0 0 0 3 0v-1A1.5 1.5 0 0 0 7.5 12Zm0 1a.5.5 0 0 0-.5.5v1a.5.5 0 0 0 1 0v-1a.5.5 0 0 0-.5-.5Z" clip-rule="evenodd"/>
        <rect width="1" height="4" x="6" y="17" rx=".5"/>
        <rect width="1" height="4" x="6" y="17" rx=".5"/>
        <rect width="1" height="4" x="8" y="17" rx=".5"/>
        <rect width="1" height="4" x="10" y="12" rx=".5"/>
        <rect width="1" height="4" x="12" y="12" rx=".5"/>
        <rect width="1" height="4" x="16" y="12" rx=".5"/>
        <rect width="1" height="4" x="8" y="7" rx=".5"/>
        <rect width="1" height="4" x="13" y="2" rx=".5"/>
    </g>
    <path fill="url(#b)" stroke="#000" stroke-linejoin="round" d="M12.024 1S4.511 9.951 4 23c0 0 9.196-10.67 11.866-7.9C18.784 18.124 20 21.906 20 21.906S18.638 8.375 12.024 1Z"/>
    <path stroke="#000" d="M14.5 4.5v10"/>
    <defs>
        <linearGradient id="b" x1="12" x2="12" y1="1" y2="23" gradientUnits="userSpaceOnUse">
            <stop stop-opacity="0"/>
            <stop offset="1" stop-opacity=".75"/>
        </linearGradient>
    </defs>
</svg>
