<svg xmlns="http://www.w3.org/2000/svg" width="96" height="96" fill="none" viewBox="0 0 24 24">
    <path fill="#D9D9D9" d="M20 20a1 1 0 1 0 0-2v2Zm0-2c-3.752 0-5.578-1.54-7.682-3.272-1.058-.87-2.22-1.82-3.7-2.535C7.12 11.47 5.331 11 3 11v2c2.04 0 3.53.406 4.748.994 1.238.598 2.231 1.399 3.298 2.278C13.192 18.039 15.495 20 20 20v-2Z"/>
    <path fill="#D9D9D9" d="M20 11a1 1 0 1 1 0 2v-2Zm0 2H3v-2h17v2Z"/>
    <circle cx="3" cy="3" r="3" fill="#757575" transform="matrix(-1 0 0 1 7 9)"/>
    <path stroke="#757575" stroke-width="2" d="M20 5c-8.257 0-8.257 7-17 7"/>
    <path fill="#757575" d="m24 5-5.25 3.031V1.97L24 5Z"/>
</svg>
