<svg width="96" height="96" viewBox="0 0 24 24" fill="none" xmlns="http://www.w3.org/2000/svg">
<path d="M20 20C20.5523 20 21 19.5523 21 19C21 18.4477 20.5523 18 20 18V20ZM20 18C16.248 18 14.422 16.4609 12.3179 14.7281C11.2602 13.8571 10.0984 12.9082 8.61846 12.1933C7.11917 11.469 5.33051 11 3 11V13C5.04092 13 6.53083 13.406 7.7485 13.9942C8.98557 14.5918 9.97907 15.3929 11.0464 16.2719C13.1922 18.0391 15.4949 20 20 20V18Z" fill="#D9D9D9"/>
<path d="M20 11C20.5523 11 21 11.4477 21 12C21 12.5523 20.5523 13 20 13V11ZM20 13H3V11H20V13Z" fill="#D9D9D9"/>
<circle cx="3" cy="3" r="3" transform="matrix(-1 0 0 1 7 9)" fill="#757575"/>
<path d="M20 5C11.7429 5 11.7429 12 3 12" stroke="#757575" stroke-width="2"/>
<path d="M24 5L18.75 8.03109L18.75 1.96891L24 5Z" fill="#757575"/>
</svg>