<svg xmlns="http://www.w3.org/2000/svg" width="24" height="24" fill="none">
    <g clip-path="url(#a)">
        <path stroke="#B3CCEA" stroke-miterlimit="10" stroke-width="2" d="M12 22.875c6.006 0 10.875-4.869 10.875-10.875S18.006 1.125 12 1.125 1.125 5.994 1.125 12 5.994 22.875 12 22.875ZM23.25 12H.75"/>
        <path stroke="#B3CCEA" stroke-miterlimit="10" stroke-width="2" d="M12.014 22.89A14.586 14.586 0 0 0 16.875 12c0-4.324-1.878-8.213-4.861-10.89"/>
        <path stroke="#B3CCEA" stroke-miterlimit="10" stroke-width="2" d="M11.986 22.89A14.594 14.594 0 0 1 7.125 12a14.59 14.59 0 0 1 4.944-10.962"/>
        <path fill="#3D4F9F" fill-rule="evenodd" d="M5.632 16.132a5.2 5.2 0 0 1 6.236 6.236 5.2 5.2 0 0 1-6.236-6.236Z" clip-rule="evenodd"/>
        <path fill="#3D4F9F" d="m5.632 16.132-.224-.975a1 1 0 0 0-.75.751l.974.224Zm6.236 6.236.224.975a1 1 0 0 0 .75-.751l-.974-.224Zm-6.013-5.262c.303-.07.62-.106.945-.106v-2c-.478 0-.944.054-1.392.157l.447 1.95ZM6.8 17a4.2 4.2 0 0 1 4.2 4.2h2A6.2 6.2 0 0 0 6.8 15v2Zm4.2 4.2c0 .326-.037.642-.106.945l1.949.447c.103-.448.157-.915.157-1.392h-2Zm.645.194c-.303.07-.62.106-.945.106v2c.478 0 .944-.054 1.392-.157l-.447-1.95Zm-.945.106a4.2 4.2 0 0 1-4.2-4.2h-2a6.2 6.2 0 0 0 6.2 6.2v-2Zm-4.2-4.2c0-.326.037-.642.106-.945l-1.949-.447A6.217 6.217 0 0 0 4.5 17.3h2Z"/>
        <path fill="#3D4F9F" fill-rule="evenodd" d="M18.368 16.132a5.2 5.2 0 0 0-6.236 6.236 5.2 5.2 0 0 0 6.236-6.236Z" clip-rule="evenodd"/>
        <path fill="#3D4F9F" d="m18.368 16.132.224-.975a1 1 0 0 1 .75.751l-.974.224Zm-6.236 6.236-.224.975a1 1 0 0 1-.75-.751l.974-.224Zm6.013-5.262A4.214 4.214 0 0 0 17.2 17v-2c.477 0 .944.054 1.392.157l-.447 1.95ZM17.2 17a4.2 4.2 0 0 0-4.2 4.2h-2a6.2 6.2 0 0 1 6.2-6.2v2ZM13 21.2c0 .326.037.642.106.945l-1.949.447A6.219 6.219 0 0 1 11 21.2h2Zm-.645.194c.303.07.62.106.945.106v2c-.478 0-.944-.054-1.392-.157l.447-1.95Zm.945.106a4.2 4.2 0 0 0 4.2-4.2h2a6.2 6.2 0 0 1-6.2 6.2v-2Zm4.2-4.2c0-.326-.037-.642-.106-.945l1.949-.447c.103.448.157.915.157 1.392h-2Z"/>
        <path fill="#3D4F9F" fill-rule="evenodd" d="M16.375 9A3.125 3.125 0 0 0 12 4.625 3.125 3.125 0 0 0 7.625 9 3.125 3.125 0 0 0 12 13.375 3.125 3.125 0 0 0 16.375 9ZM12 11a2 2 0 1 0 0-4 2 2 0 0 0 0 4Z" clip-rule="evenodd"/>
        <path stroke="#3D4F9F" stroke-width="2" d="M12 12.5V20"/>
    </g>
    <defs>
        <clipPath id="a">
            <path fill="#fff" d="M0 0h24v24H0z"/>
        </clipPath>
    </defs>
</svg>
