<svg xmlns="http://www.w3.org/2000/svg" width="24" height="24" fill="none">
    <path fill="#B61A17" fill-rule="evenodd" d="m6.297 9.243-.712-.71a2.009 2.009 0 0 0-2.834 0L.617 10.66a1.991 1.991 0 0 0 0 2.823l2.134 2.126c.783.78 2.051.78 2.834 0l.712-.71-1.422-1.416a1.991 1.991 0 0 1 0-2.824l1.422-1.416Z" clip-rule="evenodd"/>
    <path fill="#42A16B" fill-rule="evenodd" d="M9.139 6.412a2.009 2.009 0 0 1 2.833 0l2.132 2.124-2.132 2.123a1.991 1.991 0 0 0 0 2.824l2.132 2.124-2.132 2.123c-.782.78-2.05.78-2.833 0L6.297 14.9l1.422-1.417a1.991 1.991 0 0 0 0-2.824L6.297 9.243 9.14 6.412Z" clip-rule="evenodd"/>
    <path fill="#1270C4" fill-rule="evenodd" d="m14.104 15.607 2.132 2.123c.782.78 2.051.78 2.834 0l4.263-4.247a1.991 1.991 0 0 0 0-2.824L19.07 6.412a2.009 2.009 0 0 0-2.834 0l-2.132 2.124 2.132 2.123c.782.78.782 2.044 0 2.824l-2.132 2.124Z" clip-rule="evenodd"/>
</svg>
