<svg xmlns="http://www.w3.org/2000/svg" width="96" height="96">
    <path fill="#00638E" d="m43.396 10.165-6.474-6.474-7.385 7.384 2.366 2.367a37.898 37.898 0 0 1 11.493-3.277m-6.475 8.295 6.146-6.147a35.724 35.724 0 0 0-9.585 2.708l3.439 3.439zm-22.153-7.385 3.692 3.692-3.692 3.691-3.692-3.693 3.692-3.69zm17.137 71.474-2.369 2.368 7.385 7.384 6.475-6.475a37.877 37.877 0 0 1-11.491-3.277m5.016-5.016-3.438 3.436a35.694 35.694 0 0 0 9.584 2.71l-6.146-6.146zM14.768 47.996l4.006 4.006a29.583 29.583 0 0 1-.279-4.006c0-1.359.1-2.696.279-4.006l-4.006 4.006zm14.8 7.352a19.769 19.769 0 0 1-1.412-7.351c0-2.6.505-5.079 1.412-7.354l-3.724-3.723-4.449 4.449a27.46 27.46 0 0 0 .001 13.254l4.449 4.448 3.723-3.723zm1.625-13.08a17.736 17.736 0 0 0-.947 5.729c0 2.006.336 3.928.948 5.726l5.728-5.727-5.729-5.728zm27.88-16.425-3.723 3.725a19.884 19.884 0 0 1 11.075 11.077l3.723-3.724-11.075-11.078zm-5.354 5.354-5.721 5.723 2.585 2.587a8.84 8.84 0 0 1 3.691 2.212 8.828 8.828 0 0 1 2.213 3.691l2.586 2.586 5.722-5.722a17.809 17.809 0 0 0-11.076-11.077m-43.552 21.4-6.475 6.474 7.384 7.385 2.368-2.368a37.82 37.82 0 0 1-3.277-11.491m8.294 6.475-6.147-6.147a35.661 35.661 0 0 0 2.709 9.584l3.438-3.437zm67.366-6.476a37.885 37.885 0 0 1-3.278 11.492l2.368 2.368 7.385-7.385-6.475-6.475zm-8.294 6.476 3.438 3.438a35.792 35.792 0 0 0 2.709-9.584l-6.147 6.146z"/>
    <path fill="#2AC5F4" d="m47.999 0 3.692 3.692-3.692 3.694-3.693-3.693L47.999 0zm33.226 77.532 3.691 3.692-3.692 3.691-3.691-3.693 3.692-3.69zM13.444 31.903l-2.367-2.368L3.69 36.92l6.476 6.473a37.816 37.816 0 0 1 3.278-11.49m5.017 5.016-3.439-3.439a35.704 35.704 0 0 0-2.708 9.586l6.147-6.147zm29.533 51.695 3.693 3.693L47.994 96l-3.692-3.694 3.692-3.692zm-5.723-23.815 5.726-5.728-2.586-2.586a8.828 8.828 0 0 1-3.691-2.213 8.829 8.829 0 0 1-2.213-3.69l-2.586-2.586-5.727 5.728a17.773 17.773 0 0 0 4.249 6.825 17.764 17.764 0 0 0 6.828 4.25m-5.349 5.349 3.723-3.723a19.894 19.894 0 0 1-11.076-11.077l-3.724 3.724 11.077 11.076zm27.872-16.431c.613-1.796.953-3.718.956-5.722a17.825 17.825 0 0 0-.954-5.72l-5.723 5.721 5.721 5.721zm16.431-5.721-4.006-4.006c.179 1.31.279 2.645.279 4.007a29.896 29.896 0 0 1-.279 4.005l4.006-4.006zm-14.801-7.351a19.79 19.79 0 0 1 1.413 7.351 19.797 19.797 0 0 1-1.413 7.351l3.725 3.725 4.447-4.448a27.418 27.418 0 0 0 .001-13.256l-4.448-4.449-3.725 3.726zm7.048-18.125a36.348 36.348 0 0 0-6.15-4.925l-4.755 4.753a29.62 29.62 0 0 1 11.076 11.077l4.754-4.753a36.382 36.382 0 0 0-4.925-6.152m-12.435 1.359-1.965 1.964 11.077 11.078 1.964-1.966a27.522 27.522 0 0 0-11.076-11.076m18.871 3.283 1.317-1.318-11.077-11.076-1.317 1.316a38.3 38.3 0 0 1 11.077 11.078"/>
    <path fill="#003E64" d="m81.225 11.075 3.691 3.692-3.692 3.691-3.692-3.693 3.693-3.69zM43.99 18.773a29.75 29.75 0 0 1 4.007-.278c1.359 0 2.695.1 4.006.278l-4.006-4.007-4.007 4.007zm-2.622 2.623-4.448 4.448 3.726 3.724a19.774 19.774 0 0 1 7.352-1.413l.03.001c2.588.004 5.056.508 7.321 1.411l3.724-3.723-4.448-4.449a27.42 27.42 0 0 0-13.257.001m6.629 15.522 5.726-5.726a17.725 17.725 0 0 0-5.724-.95h-.001a17.797 17.797 0 0 0-5.722.956l5.721 5.72zM16.085 68.83l-1.317 1.317 11.077 11.076 1.318-1.315A38.328 38.328 0 0 1 16.085 68.83m12.589 9.566 4.752-4.753a29.629 29.629 0 0 1-11.075-11.076l-4.754 4.752a36.2 36.2 0 0 0 11.077 11.077m6.283-6.283 1.965-1.965-11.077-11.076-1.966 1.966a27.534 27.534 0 0 0 11.078 11.075m-7.795-56.03-1.317-1.316-11.077 11.075 1.316 1.318a38.324 38.324 0 0 1 11.078-11.077m-9.565 12.588 4.752 4.753a29.624 29.624 0 0 1 11.076-11.076l-4.752-4.753a36.117 36.117 0 0 0-6.152 4.925 36.31 36.31 0 0 0-4.924 6.151m6.282 6.283 1.966 1.966 11.076-11.077-1.966-1.966a27.503 27.503 0 0 0-11.076 11.077m57.092-1.473-3.438 3.438 6.146 6.146a35.706 35.706 0 0 0-2.708-9.584m4.855 9.913 6.475-6.474-7.383-7.385-2.369 2.369a37.814 37.814 0 0 1 3.277 11.49M52.597 85.826l6.476 6.474 7.383-7.383-2.367-2.369a37.848 37.848 0 0 1-11.492 3.278m6.476-8.294-6.146 6.146a35.7 35.7 0 0 0 9.583-2.708l-3.437-3.438zm5.721-23.815-5.721-5.721-2.587 2.587a8.836 8.836 0 0 1-2.213 3.689 8.831 8.831 0 0 1-3.689 2.213l-2.588 2.588 5.721 5.72a17.797 17.797 0 0 0 11.077-11.076m5.355 5.355-3.724-3.725a19.89 19.89 0 0 1-11.076 11.076l3.723 3.725 11.077-11.076z"/>
    <path fill="#008FBD" d="m14.765 77.536 3.693 3.693-3.693 3.693-3.693-3.694 3.693-3.692zM3.692 51.688 0 47.996l3.693-3.692 3.692 3.692-3.693 3.692zm88.61-7.387 3.693 3.692-3.693 3.694-3.693-3.692 3.693-3.694zM64.089 13.443l2.369-2.368-7.385-7.384-6.476 6.475a37.818 37.818 0 0 1 11.492 3.277m-5.016 5.016 3.439-3.439a35.76 35.76 0 0 0-9.585-2.708l6.146 6.147zm19.323 48.86-4.753-4.753a29.631 29.631 0 0 1-11.076 11.076l4.753 4.753a36.195 36.195 0 0 0 6.152-4.925 36.33 36.33 0 0 0 4.924-6.151m-9.565 12.588 1.317 1.317 11.078-11.076-1.318-1.319a38.337 38.337 0 0 1-11.077 11.078m-16.827-2.69a29.598 29.598 0 0 1-4.007.279c-1.359 0-2.695-.1-4.006-.279l4.006 4.007 4.007-4.007zm2.622-2.621 4.447-4.449-3.724-3.724a19.808 19.808 0 0 1-7.353 1.414l-.031-.003a19.758 19.758 0 0 1-7.32-1.411l-3.725 3.724 4.449 4.45a27.455 27.455 0 0 0 13.257-.001M29.568 40.643a19.894 19.894 0 0 1 11.077-11.076l-3.725-3.724L25.845 36.92l3.723 3.723zm1.625 1.625 5.729 5.728 2.585-2.586a8.816 8.816 0 0 1 2.214-3.69 8.813 8.813 0 0 1 3.689-2.214l2.587-2.586-5.728-5.729a17.747 17.747 0 0 0-11.076 11.077m40.92 18.768-1.965-1.964-11.076 11.076 1.965 1.965a27.56 27.56 0 0 0 11.076-11.077m-24.116-1.964-5.726 5.727c1.795.612 3.718.949 5.723.949h.002a17.8 17.8 0 0 0 5.721-.954l-5.72-5.722z"/>
</svg>
